<svg xmlns="http://www.w3.org/2000/svg" width="64" height="64" viewBox="0 0 64 64">
  <!-- The header's "{ }" logo mark as a tab icon: bright red-glow braces
       (#ff4d3a) on the header background (#0d0d0c) with a faint chalk
       outline. Drawn as paths rather than text so it looks identical in
       every browser, independent of installed fonts. -->
  <rect x="2" y="2" width="60" height="60" rx="12" fill="#0d0d0c" stroke="#e8e4dc" stroke-opacity="0.25" stroke-width="2" />
  <g fill="none" stroke="#ff4d3a" stroke-width="6" stroke-linecap="round" stroke-linejoin="round">
    <path d="M27 12 C19 12 19 17 19 23 L19 26 C19 30 17 32 11 32 C17 32 19 34 19 38 L19 41 C19 47 19 52 27 52" />
    <path d="M37 12 C45 12 45 17 45 23 L45 26 C45 30 47 32 53 32 C47 32 45 34 45 38 L45 41 C45 47 45 52 37 52" />
  </g>
</svg>
